PathFileType	4	(X/Y/Z)	s06c0001.trc
DataRate	CameraRate	NumFrames	NumMarkers	Units	OrigDataRate	OrigDataStartFrame	OrigNumFrames
200	200	4	49	mm	200	1250	2000
Frame#	Time	racr			lacr			c7			jug			rlel			rdr			llel			ldr			s2			lic			ric			lasi			rasi			rpsi			lpsi			rgt			lgt			rth1			rth2			rth3			rth4			rlfc			rmfc			rsh1			rsh2			rsh3			rsh4			rlmal			rmmal			rcal			rtoe			rmt5			rmt1			lth1			lth2			lth4			lth3			llfc			lmfc			llmal			lmmal			lcal			lmt1			lmt5			lsh1			lsh2			lsh3			lsh4			ltoe			
		X1	Y1	Z1	X2	Y2	Z2	X3	Y3	Z3	X4	Y4	Z4	X5	Y5	Z5	X6	Y6	Z6	X7	Y7	Z7	X8	Y8	Z8	X9	Y9	Z9	X10	Y10	Z10	X11	Y11	Z11	X12	Y12	Z12	X13	Y13	Z13	X14	Y14	Z14	X15	Y15	Z15	X16	Y16	Z16	X17	Y17	Z17	X18	Y18	Z18	X19	Y19	Z19	X20	Y20	Z20	X21	Y21	Z21	X22	Y22	Z22	X23	Y23	Z23	X24	Y24	Z24	X25	Y25	Z25	X26	Y26	Z26	X27	Y27	Z27	X28	Y28	Z28	X29	Y29	Z29	X30	Y30	Z30	X31	Y31	Z31	X32	Y32	Z32	X33	Y33	Z33	X34	Y34	Z34	X35	Y35	Z35	X36	Y36	Z36	X37	Y37	Z37	X38	Y38	Z38	X39	Y39	Z39	X40	Y40	Z40	X41	Y41	Z41	X42	Y42	Z42	X43	Y43	Z43	X44	Y44	Z44	X45	Y45	Z45	X46	Y46	Z46	X47	Y47	Z47	X48	Y48	Z48	X49	Y49	Z49	
1250	6.2500	226.830109	1420.305664	399.139343	229.422745	1430.768311	43.344639	189.527969	1491.109131	218.263504	311.244629	1397.516724	224.417114	249.541260	1203.965698	578.451477	354.684662	1048.327026	769.329712	237.195587	1208.056274	-127.713348	334.906219	1070.152710	-327.493286	114.150459	965.140076	230.703171	267.161224	1009.646912	51.555191	277.485962	987.352600	388.790070	319.594330	956.432373	80.781479	330.460907	945.767700	350.452454	137.819290	998.805115	258.289856	124.429428	996.051147	194.424759	239.067154	872.204041	401.755005	244.788757	897.452271	28.333775	249.851974	749.833008	420.729065	258.441040	660.259583	414.023865	222.417099	582.231018	400.431000	294.954407	656.013062	404.649780	205.035675	473.524597	380.638947	220.085037	450.397339	272.462219	174.313400	353.255890	402.111023	188.125443	267.723236	382.036041	159.736649	186.536667	370.600250	216.675201	269.810577	354.715576	154.738770	99.809654	358.385101	199.930649	122.011230	273.243225	109.536011	65.703941	297.049805	382.180481	75.475235	334.590057	280.694336	43.246567	392.360474	303.963379	59.700382	276.980286	228.777557	764.545959	12.509547	242.528488	678.289185	17.356554	278.810730	674.951477	25.849030	210.456390	595.775879	29.321119	181.794113	477.329620	49.806480	202.655594	455.989716	159.901352	154.623688	99.299225	56.025196	171.112091	121.991440	141.086151	100.983620	58.906796	110.554626	310.811127	52.353714	132.986252	290.060577	51.054070	17.869728	159.551575	370.920410	24.003057	177.013565	286.094299	36.890354	149.958374	202.195129	38.013371	207.783203	286.479492	61.572552	380.386444	71.489082	69.479790	
1251	6.2550	226.820984	1420.324951	399.141022	229.399017	1430.765869	43.364616	189.510834	1491.098389	218.241028	311.243134	1397.519531	224.414001	249.522614	1203.985229	578.452209	354.706177	1048.339478	769.304016	237.164780	1208.064453	-127.723289	334.816589	1070.125244	-327.418915	114.115082	965.149841	230.714417	267.155762	1009.642761	51.559227	277.468903	987.308105	388.789246	319.551788	956.426514	80.765945	330.454224	945.763977	350.444672	137.779343	998.800171	258.293365	124.387009	996.048401	194.431335	239.068481	872.227539	401.757599	244.760574	897.439209	28.337116	249.837357	749.848145	420.733643	258.440247	660.261230	414.030212	222.415878	582.216431	400.456146	294.963165	656.009216	404.660461	205.026306	473.522766	380.635620	220.071930	450.398132	272.485260	174.322678	353.215118	402.139069	188.143738	267.725983	382.062378	159.734573	186.538422	370.609528	216.678268	269.827393	354.732819	154.731277	99.807358	358.383667	199.912735	122.018570	273.255157	109.536095	65.717682	297.039856	382.182922	75.493660	334.606689	280.667114	43.249687	392.368988	303.967133	59.708923	276.987885	228.759399	764.548279	12.499924	242.506699	678.301758	17.344013	278.795807	674.987305	25.812420	210.442932	595.778870	29.330740	181.786713	477.338104	49.798664	202.640915	455.973511	159.885010	154.626175	99.293839	56.035458	171.115936	121.997353	141.084610	100.996902	58.905933	110.548584	310.785797	52.357018	132.988892	290.056213	51.055206	17.859480	159.544357	370.931030	23.993206	177.012741	286.105957	36.908859	149.952332	202.189438	38.016460	207.775848	286.478882	61.576134	380.381012	71.505836	69.492432	
1252	6.2600	226.792679	1420.325073	399.135864	229.382492	1430.772705	43.355732	189.507172	1491.098999	218.227478	311.229706	1397.523193	224.401993	249.510406	1203.993652	578.448242	354.720795	1048.357056	769.300659	237.140411	1208.069336	-127.713234	334.895996	1070.155640	-327.494598	114.098480	965.124634	230.721237	267.085144	1009.665710	51.543476	277.450409	987.296692	388.767426	319.528412	956.429565	80.789215	330.414154	945.758179	350.453064	137.770905	998.795105	258.301483	124.348389	996.058716	194.434708	239.058136	872.197205	401.764069	244.735062	897.453613	28.352011	249.818695	749.850769	420.740448	258.428436	660.254456	414.025543	222.407211	582.225952	400.451996	294.941589	656.013245	404.651886	205.020874	473.539886	380.636566	220.083633	450.386810	272.498016	174.327362	353.212982	402.136719	188.123672	267.707916	382.046295	159.746292	186.524734	370.615936	216.675949	269.820892	354.719177	154.713226	99.798485	358.393311	199.912689	122.020508	273.252563	109.536087	65.717674	297.039856	382.181183	75.490685	334.598938	280.674835	43.253929	392.376068	303.964783	59.694561	276.984528	228.740051	764.541931	12.507758	242.478149	678.304138	17.334881	278.761719	674.990784	25.830238	210.411606	595.777649	29.326916	181.760773	477.334473	49.803104	202.633621	455.999939	159.889130	154.621002	99.293892	56.047688	171.105240	122.002464	141.083160	101.004524	58.894890	110.554581	310.803711	52.345337	132.983688	290.050964	51.050255	17.869791	159.523239	370.913025	23.997355	176.998230	286.101532	36.899929	149.939011	202.200546	38.024532	207.752579	286.488434	61.577545	380.373291	71.496628	69.483070	
1253	6.2650	226.774384	1420.329834	399.124695	229.373138	1430.764282	43.326660	189.475433	1491.108398	218.243530	311.213593	1397.523682	224.409317	249.501663	1203.991821	578.449585	354.720490	1048.373413	769.296753	237.123016	1208.073120	-127.716988	334.885315	1070.162231	-327.495239	114.086624	965.129761	230.730774	267.066895	1009.658936	51.545292	277.429291	987.298340	388.794250	319.501068	956.431396	80.772186	330.412354	945.768738	350.439880	137.734848	998.797424	258.304260	124.320450	996.053162	194.449234	239.048996	872.205322	401.767975	244.718353	897.452942	28.348219	249.817719	749.835693	420.743195	258.424896	660.263306	414.024231	222.394302	582.251099	400.475494	294.930603	656.003784	404.663727	205.014023	473.528503	380.649353	220.055206	450.397369	272.487457	174.300400	353.243530	402.134186	188.122864	267.716156	382.046509	159.756424	186.512268	370.613861	216.659164	269.821869	354.723328	154.728607	99.802116	358.396088	199.916199	122.009796	273.260834	109.536079	65.717667	297.039856	382.163971	75.490356	334.599426	280.693176	43.245979	392.369263	303.983124	59.719612	276.977600	228.706161	764.546509	12.507379	242.456757	678.288696	17.345167	278.735138	674.968872	25.804562	210.391739	595.775024	29.318871	181.751617	477.327057	49.820366	202.604813	455.994812	159.882965	154.611008	99.283600	56.037373	171.087585	121.979340	141.083008	100.984863	58.903957	110.550743	310.798737	52.333153	132.971207	290.051361	51.057411	17.860470	159.514038	370.921906	23.988771	176.994858	286.086426	36.899529	149.936234	202.194290	38.016403	207.753403	286.479614	61.585361	380.370148	71.514999	69.490379	
